{
 "cells": [
  {
   "cell_type": "code",
   "execution_count": 24,
   "metadata": {},
   "outputs": [
    {
     "name": "stdout",
     "output_type": "stream",
     "text": [
      "{\n",
      "  \"scenes\": [\n",
      "    {\n",
      "      \"visual\": \"Nahaufnahme eines Powerline Webcast 3 Adapters\",\n",
      "      \"audio\": \"Bevor Sie die TechniSat PowerLine Webcast 3 Adapter in Betrieb nehmen, stellen Sie sicher, dass Sie ihn ausschliesslich an einem trockenen Standort verwenden.\"\n",
      "    },\n",
      "    {\n",
      "      \"visual\": \"Jemand versucht, einen Stift in eine Steckdose zu stecken\",\n",
      "      \"audio\": \"Stecken Sie keine Gegenstände in die Öffnungen des Gerätes, denn es besteht Stromschlaggefahr!\"\n",
      "    },\n",
      "    {\n",
      "      \"visual\": \"Bild eines Gerätes in direkter Sonneneinstrahlung\",\n",
      "      \"audio\": \"Setzen Sie das Gerät nicht direkter Sonneneinstrahlung aus, da dies zu Beschädigungen des Gehäuses führen kann.\"\n",
      "    },\n",
      "    {\n",
      "      \"visual\": \"Jemand schliesst mehrere Geräte über eine Mehrfachsteckdose an den Powerline Webcast 3 an\",\n",
      "      \"audio\": \"Wenn Sie weitere Netzwerkgeräte mittels Mehrfachsteckdose anschliessen, stecken Sie diese Mehrfachsteckdose in die Steckdose des PowerLine Webcast 3. Leuchtet die Power LED dauerhaft, ist der Reset abgeschlossen. \"\n",
      "    }\n",
      "  ]\n",
      "}"
     ]
    }
   ],
   "source": [
    "from manual_influencer import constants, script_generator\n",
    "\n",
    "mjson = script_generator.generate_script(text=constants.TEXT_AND_PDF_TO_SCENES_PROMPT)"
   ]
  },
  {
   "cell_type": "code",
   "execution_count": 25,
   "metadata": {
    "tags": []
   },
   "outputs": [],
   "source": [
    "import json\n",
    "data = json.loads(mjson)"
   ]
  },
  {
   "cell_type": "code",
   "execution_count": 29,
   "metadata": {
    "tags": []
   },
   "outputs": [],
   "source": [
    "from google import genai\n",
    "from google.genai import types\n",
    "import base64\n",
    "\n",
    "def generate(prompt):\n",
    "  client = genai.Client(\n",
    "      vertexai=True,\n",
    "      project=\"bliss-hack25fra-9587\",\n",
    "      location=\"global\",\n",
    "  )\n",
    "\n",
    "  si_text1 = \"\"\"make an english description of an image matching this scene description. black and white, rough sketch, cartoonish style. only answer with the description. no other text.\"\"\"\n",
    "\n",
    "  model = \"gemini-2.0-flash-001\"\n",
    "  contents = [\n",
    "    types.Content(\n",
    "      role=\"user\",\n",
    "      parts=[\n",
    "        types.Part.from_text(text=prompt)\n",
    "      ]\n",
    "    ),\n",
    "  ]\n",
    "  generate_content_config = types.GenerateContentConfig(\n",
    "    temperature = 1,\n",
    "    top_p = 0.95,\n",
    "    max_output_tokens = 8192,\n",
    "    response_modalities = [\"TEXT\"],\n",
    "    safety_settings = [types.SafetySetting(\n",
    "      category=\"HARM_CATEGORY_HATE_SPEECH\",\n",
    "      threshold=\"OFF\"\n",
    "    ),types.SafetySetting(\n",
    "      category=\"HARM_CATEGORY_DANGEROUS_CONTENT\",\n",
    "      threshold=\"OFF\"\n",
    "    ),types.SafetySetting(\n",
    "      category=\"HARM_CATEGORY_SEXUALLY_EXPLICIT\",\n",
    "      threshold=\"OFF\"\n",
    "    ),types.SafetySetting(\n",
    "      category=\"HARM_CATEGORY_HARASSMENT\",\n",
    "      threshold=\"OFF\"\n",
    "    )],\n",
    "    system_instruction=[types.Part.from_text(text=si_text1)],\n",
    "  )\n",
    "\n",
    "  mstr = ''\n",
    "\n",
    "  for chunk in client.models.generate_content_stream(\n",
    "    model = model,\n",
    "    contents = contents,\n",
    "    config = generate_content_config,\n",
    "    ):\n",
    "    print(chunk.text, end=\"\")\n",
    "    mstr += chunk.text\n",
    "  \n",
    "  return mstr\n",
    "    \n",
    "\n",
    "#generate()"
   ]
  },
  {
   "cell_type": "code",
   "execution_count": 27,
   "metadata": {
    "tags": []
   },
   "outputs": [],
   "source": [
    "from vertexai.preview.vision_models import ImageGenerationModel\n",
    "import vertexai\n",
    "\n",
    "#pmt = \"A close-up, roughly sketched, black and white cartoon drawing of a powerline adapter, suggesting a simple, perhaps technical illustration.\"\n",
    "def generate_image(prompt, filename):\n",
    "    print(\"Prompt: \" + prompt)\n",
    "    vertexai.init(project=\"bliss-hack25fra-9587\", location=\"us-central1\")\n",
    "    generation_model = ImageGenerationModel.from_pretrained(\"imagen-3.0-generate-002\")\n",
    "\n",
    "    images = generation_model.generate_images(\n",
    "        prompt=prompt,\n",
    "        number_of_images=4,\n",
    "        aspect_ratio=\"9:16\",\n",
    "        negative_prompt=\"\",\n",
    "        person_generation=\"\",\n",
    "        safety_filter_level=\"\",\n",
    "        add_watermark=True,\n",
    "    )\n",
    "\n",
    "    images[0].save(filename)"
   ]
  },
  {
   "cell_type": "code",
   "execution_count": 41,
   "metadata": {
    "tags": []
   },
   "outputs": [],
   "source": [
    "import cv2\n",
    "import os\n",
    "import subprocess\n",
    "import imageio_ffmpeg\n",
    "import ffmpeg\n",
    "\n",
    "def generate_video(image_folder = 'data/images', audio_file = './data/synthesis.wav', output_file = './data/out.mp4'):\n",
    "    try:\n",
    "        os.remove('./finished_video.mp4')\n",
    "        os.remove('./video.avi')\n",
    "        os.remove('./video.mp4')\n",
    "    except:\n",
    "        pass\n",
    "\n",
    "    images = [img for img in os.listdir(image_folder) if img.endswith(\".png\")]\n",
    "    frame = cv2.imread(os.path.join(image_folder, images[0]))\n",
    "    height, width, layers = frame.shape\n",
    "\n",
    "    video = cv2.VideoWriter('./video.avi', 0, 1, (width,height))\n",
    "\n",
    "    for image in images:\n",
    "        video.write(cv2.imread(os.path.join(image_folder, image)))\n",
    "\n",
    "    #cv2.destroyAllWindows()\n",
    "    video.release()\n",
    "\n",
    "\n",
    "\n",
    "    ffmpeg_exe = imageio_ffmpeg.get_ffmpeg_exe()\n",
    "    subprocess.run([\n",
    "        ffmpeg_exe,\n",
    "        '-y',               # overwrite output if exists\n",
    "        '-i', 'video.avi',  # input video\n",
    "        '-c:v', 'libx264',  # video codec\n",
    "        '-c:a', 'aac',      # audio codec\n",
    "        '-shortest',        # finish when the shorter stream ends\n",
    "        'video.mp4'         # output file\n",
    "    ])\n",
    "    \n",
    "    subprocess.run([\n",
    "        ffmpeg_exe,\n",
    "        '-y',\n",
    "        '-i', 'video.mp4',\n",
    "        '-i', audio_file,\n",
    "        '-c:v', 'copy',\n",
    "        '-c:a', 'aac',\n",
    "        '-shortest',\n",
    "        output_file\n",
    "    ])\n",
    "\n",
    "    #input_video = ffmpeg.input('./video.mp4')\n",
    "\n",
    "    #input_audio = ffmpeg.input(audio_file)\n",
    "\n",
    "    #ffmpeg.concat(input_video, input_audio, v=1, a=1).output(output_file).run(cmd=ffmpeg_exe)\n",
    "    os.remove('./video.avi')\n",
    "    os.remove('./video.mp4')"
   ]
  },
  {
   "cell_type": "code",
   "execution_count": 43,
   "metadata": {
    "tags": []
   },
   "outputs": [
    {
     "name": "stdout",
     "output_type": "stream",
     "text": [
      "{'visual': 'Nahaufnahme eines Powerline Webcast 3 Adapters', 'audio': 'Bevor Sie die TechniSat PowerLine Webcast 3 Adapter in Betrieb nehmen, stellen Sie sicher, dass Sie ihn ausschliesslich an einem trockenen Standort verwenden.'}\n",
      "A close-up, roughly sketched cartoon of a Powerline Webcast 3 Adapter in black and white.\n",
      "Prompt: A close-up, roughly sketched cartoon of a Powerline Webcast 3 Adapter in black and white.\n",
      "\n",
      "Audio content written to file \"./data/audio/output.mp3\"\n",
      "{'visual': 'Jemand versucht, einen Stift in eine Steckdose zu stecken', 'audio': 'Stecken Sie keine Gegenstände in die Öffnungen des Gerätes, denn es besteht Stromschlaggefahr!'}\n"
     ]
    },
    {
     "name": "stderr",
     "output_type": "stream",
     "text": [
      "ffmpeg version 7.0.2-static https://johnvansickle.com/ffmpeg/  Copyright (c) 2000-2024 the FFmpeg developers\n",
      "  built with gcc 8 (Debian 8.3.0-6)\n",
      "  configuration: --enable-gpl --enable-version3 --enable-static --disable-debug --disable-ffplay --disable-indev=sndio --disable-outdev=sndio --cc=gcc --enable-fontconfig --enable-frei0r --enable-gnutls --enable-gmp --enable-libgme --enable-gray --enable-libaom --enable-libfribidi --enable-libass --enable-libvmaf --enable-libfreetype --enable-libmp3lame --enable-libopencore-amrnb --enable-libopencore-amrwb --enable-libopenjpeg --enable-librubberband --enable-libsoxr --enable-libspeex --enable-libsrt --enable-libvorbis --enable-libopus --enable-libtheora --enable-libvidstab --enable-libvo-amrwbenc --enable-libvpx --enable-libwebp --enable-libx264 --enable-libx265 --enable-libxml2 --enable-libdav1d --enable-libxvid --enable-libzvbi --enable-libzimg\n",
      "  libavutil      59.  8.100 / 59.  8.100\n",
      "  libavcodec     61.  3.100 / 61.  3.100\n",
      "  libavformat    61.  1.100 / 61.  1.100\n",
      "  libavdevice    61.  1.100 / 61.  1.100\n",
      "  libavfilter    10.  1.100 / 10.  1.100\n",
      "  libswscale      8.  1.100 /  8.  1.100\n",
      "  libswresample   5.  1.100 /  5.  1.100\n",
      "  libpostproc    58.  1.100 / 58.  1.100\n",
      "Input #0, avi, from 'video.avi':\n",
      "  Metadata:\n",
      "    software        : Lavf59.27.100\n",
      "  Duration: 00:00:01.00, start: 0.000000, bitrate: 13021 kb/s\n",
      "  Stream #0:0: Video: rawvideo (I420 / 0x30323449), yuv420p, 768x1408, 1 fps, 1 tbr, 1 tbn\n",
      "Stream mapping:\n",
      "  Stream #0:0 -> #0:0 (rawvideo (native) -> h264 (libx264))\n",
      "Press [q] to stop, [?] for help\n",
      "[libx264 @ 0x15fa4280] using cpu capabilities: MMX2 SSE2Fast SSSE3 SSE4.2 AVX FMA3 BMI2 AVX2\n",
      "[libx264 @ 0x15fa4280] profile High, level 3.2, 4:2:0, 8-bit\n",
      "[libx264 @ 0x15fa4280] 264 - core 164 r3191 4613ac3 - H.264/MPEG-4 AVC codec - Copyleft 2003-2024 - http://www.videolan.org/x264.html - options: cabac=1 ref=3 deblock=1:0:0 analyse=0x3:0x113 me=hex subme=7 psy=1 psy_rd=1.00:0.00 mixed_ref=1 me_range=16 chroma_me=1 trellis=1 8x8dct=1 cqm=0 deadzone=21,11 fast_pskip=1 chroma_qp_offset=-2 threads=6 lookahead_threads=1 sliced_threads=0 nr=0 decimate=1 interlaced=0 bluray_compat=0 constrained_intra=0 bframes=3 b_pyramid=2 b_adapt=1 b_bias=0 direct=1 weightb=1 open_gop=0 weightp=2 keyint=250 keyint_min=1 scenecut=40 intra_refresh=0 rc_lookahead=40 rc=crf mbtree=1 crf=23.0 qcomp=0.60 qpmin=0 qpmax=69 qpstep=4 ip_ratio=1.40 aq=1:1.00\n",
      "Output #0, mp4, to 'video.mp4':\n",
      "  Metadata:\n",
      "    software        : Lavf59.27.100\n",
      "    encoder         : Lavf61.1.100\n",
      "  Stream #0:0: Video: h264 (avc1 / 0x31637661), yuv420p(progressive), 768x1408, q=2-31, 1 fps, 16384 tbn\n",
      "      Metadata:\n",
      "        encoder         : Lavc61.3.100 libx264\n",
      "      Side data:\n",
      "        cpb: bitrate max/min/avg: 0/0/0 buffer size: 0 vbv_delay: N/A\n",
      "[out#0/mp4 @ 0x15fa30c0] video:37KiB audio:0KiB subtitle:0KiB other streams:0KiB global headers:0KiB muxing overhead: 2.144011%\n",
      "frame=    1 fps=0.0 q=17.0 Lsize=      38KiB time=00:00:01.00 bitrate= 313.7kbits/s speed=17.9x    \n",
      "[libx264 @ 0x15fa4280] frame I:1     Avg QP: 7.78  size: 37698\n",
      "[libx264 @ 0x15fa4280] mb I  I16..4: 53.8% 34.7% 11.5%\n",
      "[libx264 @ 0x15fa4280] 8x8 transform intra:34.7%\n",
      "[libx264 @ 0x15fa4280] coded y,uvDC,uvAC intra: 24.3% 46.9% 44.6%\n",
      "[libx264 @ 0x15fa4280] i16 v,h,dc,p: 92%  5%  2%  0%\n",
      "[libx264 @ 0x15fa4280] i8 v,h,dc,ddl,ddr,vr,hd,vl,hu:  6%  5% 88%  0%  0%  0%  0%  0%  0%\n",
      "[libx264 @ 0x15fa4280] i4 v,h,dc,ddl,ddr,vr,hd,vl,hu: 22% 17% 28% 12%  3%  2% 10%  3%  4%\n",
      "[libx264 @ 0x15fa4280] i8c dc,h,v,p: 79%  7% 13%  1%\n",
      "[libx264 @ 0x15fa4280] kb/s:301.58\n",
      "ffmpeg version 7.0.2-static https://johnvansickle.com/ffmpeg/  Copyright (c) 2000-2024 the FFmpeg developers\n",
      "  built with gcc 8 (Debian 8.3.0-6)\n",
      "  configuration: --enable-gpl --enable-version3 --enable-static --disable-debug --disable-ffplay --disable-indev=sndio --disable-outdev=sndio --cc=gcc --enable-fontconfig --enable-frei0r --enable-gnutls --enable-gmp --enable-libgme --enable-gray --enable-libaom --enable-libfribidi --enable-libass --enable-libvmaf --enable-libfreetype --enable-libmp3lame --enable-libopencore-amrnb --enable-libopencore-amrwb --enable-libopenjpeg --enable-librubberband --enable-libsoxr --enable-libspeex --enable-libsrt --enable-libvorbis --enable-libopus --enable-libtheora --enable-libvidstab --enable-libvo-amrwbenc --enable-libvpx --enable-libwebp --enable-libx264 --enable-libx265 --enable-libxml2 --enable-libdav1d --enable-libxvid --enable-libzvbi --enable-libzimg\n",
      "  libavutil      59.  8.100 / 59.  8.100\n",
      "  libavcodec     61.  3.100 / 61.  3.100\n",
      "  libavformat    61.  1.100 / 61.  1.100\n",
      "  libavdevice    61.  1.100 / 61.  1.100\n",
      "  libavfilter    10.  1.100 / 10.  1.100\n",
      "  libswscale      8.  1.100 /  8.  1.100\n",
      "  libswresample   5.  1.100 /  5.  1.100\n",
      "  libpostproc    58.  1.100 / 58.  1.100\n",
      "Input #0, mov,mp4,m4a,3gp,3g2,mj2, from 'video.mp4':\n",
      "  Metadata:\n",
      "    major_brand     : isom\n",
      "    minor_version   : 512\n",
      "    compatible_brands: isomiso2avc1mp41\n",
      "    encoder         : Lavf61.1.100\n",
      "  Duration: 00:00:01.00, start: 0.000000, bitrate: 313 kb/s\n",
      "  Stream #0:0[0x1](und): Video: h264 (High) (avc1 / 0x31637661), yuv420p(progressive), 768x1408, 307 kb/s, 1 fps, 1 tbr, 16384 tbn (default)\n",
      "      Metadata:\n",
      "        handler_name    : VideoHandler\n",
      "        vendor_id       : [0][0][0][0]\n",
      "        encoder         : Lavc61.3.100 libx264\n",
      "[mp3 @ 0x25f0f700] Estimating duration from bitrate, this may be inaccurate\n",
      "Input #1, mp3, from './data/audio/output.mp3':\n",
      "  Duration: 00:00:09.60, start: 0.000000, bitrate: 64 kb/s\n",
      "  Stream #1:0: Audio: mp3 (mp3float), 24000 Hz, mono, fltp, 64 kb/s\n",
      "Stream mapping:\n",
      "  Stream #0:0 -> #0:0 (copy)\n",
      "  Stream #1:0 -> #0:1 (mp3 (mp3float) -> aac (native))\n",
      "Press [q] to stop, [?] for help\n",
      "Output #0, mp4, to '0.mp4':\n",
      "  Metadata:\n",
      "    major_brand     : isom\n",
      "    minor_version   : 512\n",
      "    compatible_brands: isomiso2avc1mp41\n",
      "    encoder         : Lavf61.1.100\n",
      "  Stream #0:0(und): Video: h264 (High) (avc1 / 0x31637661), yuv420p(progressive), 768x1408, q=2-31, 307 kb/s, 1 fps, 1 tbr, 16384 tbn (default)\n",
      "      Metadata:\n",
      "        handler_name    : VideoHandler\n",
      "        vendor_id       : [0][0][0][0]\n",
      "        encoder         : Lavc61.3.100 libx264\n",
      "  Stream #0:1: Audio: aac (LC) (mp4a / 0x6134706D), 24000 Hz, mono, fltp, 69 kb/s\n",
      "      Metadata:\n",
      "        encoder         : Lavc61.3.100 aac\n",
      "[out#0/mp4 @ 0x25f4e400] video:37KiB audio:10KiB subtitle:0KiB other streams:0KiB global headers:0KiB muxing overhead: 3.060577%\n",
      "size=      49KiB time=00:00:01.00 bitrate= 402.7kbits/s speed=21.7x    \n",
      "[aac @ 0x25f52c80] Qavg: 2471.529\n"
     ]
    },
    {
     "name": "stdout",
     "output_type": "stream",
     "text": [
      "A figure, rendered in a rough, cartoonish style, attempts to insert a pen into an electrical outlet.\n",
      "Prompt: A figure, rendered in a rough, cartoonish style, attempts to insert a pen into an electrical outlet.\n",
      "\n",
      "Audio content written to file \"./data/audio/output.mp3\"\n"
     ]
    },
    {
     "name": "stderr",
     "output_type": "stream",
     "text": [
      "ffmpeg version 7.0.2-static https://johnvansickle.com/ffmpeg/  Copyright (c) 2000-2024 the FFmpeg developers\n",
      "  built with gcc 8 (Debian 8.3.0-6)\n",
      "  configuration: --enable-gpl --enable-version3 --enable-static --disable-debug --disable-ffplay --disable-indev=sndio --disable-outdev=sndio --cc=gcc --enable-fontconfig --enable-frei0r --enable-gnutls --enable-gmp --enable-libgme --enable-gray --enable-libaom --enable-libfribidi --enable-libass --enable-libvmaf --enable-libfreetype --enable-libmp3lame --enable-libopencore-amrnb --enable-libopencore-amrwb --enable-libopenjpeg --enable-librubberband --enable-libsoxr --enable-libspeex --enable-libsrt --enable-libvorbis --enable-libopus --enable-libtheora --enable-libvidstab --enable-libvo-amrwbenc --enable-libvpx --enable-libwebp --enable-libx264 --enable-libx265 --enable-libxml2 --enable-libdav1d --enable-libxvid --enable-libzvbi --enable-libzimg\n",
      "  libavutil      59.  8.100 / 59.  8.100\n",
      "  libavcodec     61.  3.100 / 61.  3.100\n",
      "  libavformat    61.  1.100 / 61.  1.100\n",
      "  libavdevice    61.  1.100 / 61.  1.100\n",
      "  libavfilter    10.  1.100 / 10.  1.100\n",
      "  libswscale      8.  1.100 /  8.  1.100\n",
      "  libswresample   5.  1.100 /  5.  1.100\n",
      "  libpostproc    58.  1.100 / 58.  1.100\n",
      "Input #0, avi, from 'video.avi':\n",
      "  Metadata:\n",
      "    software        : Lavf59.27.100\n",
      "  Duration: 00:00:01.00, start: 0.000000, bitrate: 13021 kb/s\n",
      "  Stream #0:0: Video: rawvideo (I420 / 0x30323449), yuv420p, 768x1408, 1 fps, 1 tbr, 1 tbn\n",
      "Stream mapping:\n",
      "  Stream #0:0 -> #0:0 (rawvideo (native) -> h264 (libx264))\n",
      "Press [q] to stop, [?] for help\n",
      "[libx264 @ 0x38fa2280] using cpu capabilities: MMX2 SSE2Fast SSSE3 SSE4.2 AVX FMA3 BMI2 AVX2\n",
      "[libx264 @ 0x38fa2280] profile High, level 3.2, 4:2:0, 8-bit\n",
      "[libx264 @ 0x38fa2280] 264 - core 164 r3191 4613ac3 - H.264/MPEG-4 AVC codec - Copyleft 2003-2024 - http://www.videolan.org/x264.html - options: cabac=1 ref=3 deblock=1:0:0 analyse=0x3:0x113 me=hex subme=7 psy=1 psy_rd=1.00:0.00 mixed_ref=1 me_range=16 chroma_me=1 trellis=1 8x8dct=1 cqm=0 deadzone=21,11 fast_pskip=1 chroma_qp_offset=-2 threads=6 lookahead_threads=1 sliced_threads=0 nr=0 decimate=1 interlaced=0 bluray_compat=0 constrained_intra=0 bframes=3 b_pyramid=2 b_adapt=1 b_bias=0 direct=1 weightb=1 open_gop=0 weightp=2 keyint=250 keyint_min=1 scenecut=40 intra_refresh=0 rc_lookahead=40 rc=crf mbtree=1 crf=23.0 qcomp=0.60 qpmin=0 qpmax=69 qpstep=4 ip_ratio=1.40 aq=1:1.00\n",
      "Output #0, mp4, to 'video.mp4':\n",
      "  Metadata:\n",
      "    software        : Lavf59.27.100\n",
      "    encoder         : Lavf61.1.100\n",
      "  Stream #0:0: Video: h264 (avc1 / 0x31637661), yuv420p(progressive), 768x1408, q=2-31, 1 fps, 16384 tbn\n",
      "      Metadata:\n",
      "        encoder         : Lavc61.3.100 libx264\n",
      "      Side data:\n",
      "        cpb: bitrate max/min/avg: 0/0/0 buffer size: 0 vbv_delay: N/A\n",
      "[out#0/mp4 @ 0x38fa10c0] video:67KiB audio:0KiB subtitle:0KiB other streams:0KiB global headers:0KiB muxing overhead: 1.196551%\n",
      "frame=    1 fps=0.0 q=17.0 Lsize=      68KiB time=00:00:01.00 bitrate= 556.8kbits/s speed=14.5x    \n",
      "[libx264 @ 0x38fa2280] frame I:1     Avg QP: 9.58  size: 68093\n",
      "[libx264 @ 0x38fa2280] mb I  I16..4: 45.0% 34.3% 20.6%\n",
      "[libx264 @ 0x38fa2280] 8x8 transform intra:34.3%\n",
      "[libx264 @ 0x38fa2280] coded y,uvDC,uvAC intra: 42.8% 66.1% 63.9%\n",
      "[libx264 @ 0x38fa2280] i16 v,h,dc,p: 89%  6%  4%  0%\n",
      "[libx264 @ 0x38fa2280] i8 v,h,dc,ddl,ddr,vr,hd,vl,hu: 31% 15% 43%  2%  2%  2%  1%  2%  1%\n",
      "[libx264 @ 0x38fa2280] i4 v,h,dc,ddl,ddr,vr,hd,vl,hu: 32% 21% 16%  6%  5%  4%  5%  6%  4%\n",
      "[libx264 @ 0x38fa2280] i8c dc,h,v,p: 68% 13% 15%  4%\n",
      "[libx264 @ 0x38fa2280] kb/s:544.74\n",
      "ffmpeg version 7.0.2-static https://johnvansickle.com/ffmpeg/  Copyright (c) 2000-2024 the FFmpeg developers\n",
      "  built with gcc 8 (Debian 8.3.0-6)\n",
      "  configuration: --enable-gpl --enable-version3 --enable-static --disable-debug --disable-ffplay --disable-indev=sndio --disable-outdev=sndio --cc=gcc --enable-fontconfig --enable-frei0r --enable-gnutls --enable-gmp --enable-libgme --enable-gray --enable-libaom --enable-libfribidi --enable-libass --enable-libvmaf --enable-libfreetype --enable-libmp3lame --enable-libopencore-amrnb --enable-libopencore-amrwb --enable-libopenjpeg --enable-librubberband --enable-libsoxr --enable-libspeex --enable-libsrt --enable-libvorbis --enable-libopus --enable-libtheora --enable-libvidstab --enable-libvo-amrwbenc --enable-libvpx --enable-libwebp --enable-libx264 --enable-libx265 --enable-libxml2 --enable-libdav1d --enable-libxvid --enable-libzvbi --enable-libzimg\n",
      "  libavutil      59.  8.100 / 59.  8.100\n",
      "  libavcodec     61.  3.100 / 61.  3.100\n",
      "  libavformat    61.  1.100 / 61.  1.100\n",
      "  libavdevice    61.  1.100 / 61.  1.100\n",
      "  libavfilter    10.  1.100 / 10.  1.100\n",
      "  libswscale      8.  1.100 /  8.  1.100\n",
      "  libswresample   5.  1.100 /  5.  1.100\n",
      "  libpostproc    58.  1.100 / 58.  1.100\n",
      "Input #0, mov,mp4,m4a,3gp,3g2,mj2, from 'video.mp4':\n",
      "  Metadata:\n",
      "    major_brand     : isom\n",
      "    minor_version   : 512\n",
      "    compatible_brands: isomiso2avc1mp41\n",
      "    encoder         : Lavf61.1.100\n",
      "  Duration: 00:00:01.00, start: 0.000000, bitrate: 556 kb/s\n",
      "  Stream #0:0[0x1](und): Video: h264 (High) (avc1 / 0x31637661), yuv420p(progressive), 768x1408, 550 kb/s, 1 fps, 1 tbr, 16384 tbn (default)\n",
      "      Metadata:\n",
      "        handler_name    : VideoHandler\n",
      "        vendor_id       : [0][0][0][0]\n",
      "        encoder         : Lavc61.3.100 libx264\n",
      "[mp3 @ 0x1cc47980] Estimating duration from bitrate, this may be inaccurate\n",
      "Input #1, mp3, from './data/audio/output.mp3':\n",
      "  Duration: 00:00:05.83, start: 0.000000, bitrate: 64 kb/s\n",
      "  Stream #1:0: Audio: mp3 (mp3float), 24000 Hz, mono, fltp, 64 kb/s\n",
      "Stream mapping:\n",
      "  Stream #0:0 -> #0:0 (copy)\n",
      "  Stream #1:0 -> #0:1 (mp3 (mp3float) -> aac (native))\n",
      "Press [q] to stop, [?] for help\n",
      "Output #0, mp4, to '1.mp4':\n",
      "  Metadata:\n",
      "    major_brand     : isom\n",
      "    minor_version   : 512\n",
      "    compatible_brands: isomiso2avc1mp41\n",
      "    encoder         : Lavf61.1.100\n",
      "  Stream #0:0(und): Video: h264 (High) (avc1 / 0x31637661), yuv420p(progressive), 768x1408, q=2-31, 550 kb/s, 1 fps, 1 tbr, 16384 tbn (default)\n",
      "      Metadata:\n",
      "        handler_name    : VideoHandler\n",
      "        vendor_id       : [0][0][0][0]\n",
      "        encoder         : Lavc61.3.100 libx264\n",
      "  Stream #0:1: Audio: aac (LC) (mp4a / 0x6134706D), 24000 Hz, mono, fltp, 69 kb/s\n",
      "      Metadata:\n",
      "        encoder         : Lavc61.3.100 aac\n",
      "[out#0/mp4 @ 0x1cc44000] video:67KiB audio:10KiB subtitle:0KiB other streams:0KiB global headers:0KiB muxing overhead: 1.885840%\n",
      "size=      79KiB time=00:00:01.00 bitrate= 646.2kbits/s speed=18.3x    \n",
      "[aac @ 0x1cc9ac40] Qavg: 2579.744\n"
     ]
    },
    {
     "name": "stdout",
     "output_type": "stream",
     "text": [
      "{'visual': 'Bild eines Gerätes in direkter Sonneneinstrahlung', 'audio': 'Setzen Sie das Gerät nicht direkter Sonneneinstrahlung aus, da dies zu Beschädigungen des Gehäuses führen kann.'}\n",
      "A cartoonish, roughly sketched, black and white image of a device sitting in direct sunlight.\n",
      "Prompt: A cartoonish, roughly sketched, black and white image of a device sitting in direct sunlight.\n",
      "\n",
      "Audio content written to file \"./data/audio/output.mp3\"\n"
     ]
    },
    {
     "name": "stderr",
     "output_type": "stream",
     "text": [
      "ffmpeg version 7.0.2-static https://johnvansickle.com/ffmpeg/  Copyright (c) 2000-2024 the FFmpeg developers\n",
      "  built with gcc 8 (Debian 8.3.0-6)\n",
      "  configuration: --enable-gpl --enable-version3 --enable-static --disable-debug --disable-ffplay --disable-indev=sndio --disable-outdev=sndio --cc=gcc --enable-fontconfig --enable-frei0r --enable-gnutls --enable-gmp --enable-libgme --enable-gray --enable-libaom --enable-libfribidi --enable-libass --enable-libvmaf --enable-libfreetype --enable-libmp3lame --enable-libopencore-amrnb --enable-libopencore-amrwb --enable-libopenjpeg --enable-librubberband --enable-libsoxr --enable-libspeex --enable-libsrt --enable-libvorbis --enable-libopus --enable-libtheora --enable-libvidstab --enable-libvo-amrwbenc --enable-libvpx --enable-libwebp --enable-libx264 --enable-libx265 --enable-libxml2 --enable-libdav1d --enable-libxvid --enable-libzvbi --enable-libzimg\n",
      "  libavutil      59.  8.100 / 59.  8.100\n",
      "  libavcodec     61.  3.100 / 61.  3.100\n",
      "  libavformat    61.  1.100 / 61.  1.100\n",
      "  libavdevice    61.  1.100 / 61.  1.100\n",
      "  libavfilter    10.  1.100 / 10.  1.100\n",
      "  libswscale      8.  1.100 /  8.  1.100\n",
      "  libswresample   5.  1.100 /  5.  1.100\n",
      "  libpostproc    58.  1.100 / 58.  1.100\n",
      "Input #0, avi, from 'video.avi':\n",
      "  Metadata:\n",
      "    software        : Lavf59.27.100\n",
      "  Duration: 00:00:01.00, start: 0.000000, bitrate: 13021 kb/s\n",
      "  Stream #0:0: Video: rawvideo (I420 / 0x30323449), yuv420p, 768x1408, 1 fps, 1 tbr, 1 tbn\n",
      "Stream mapping:\n",
      "  Stream #0:0 -> #0:0 (rawvideo (native) -> h264 (libx264))\n",
      "Press [q] to stop, [?] for help\n",
      "[libx264 @ 0x3d757280] using cpu capabilities: MMX2 SSE2Fast SSSE3 SSE4.2 AVX FMA3 BMI2 AVX2\n",
      "[libx264 @ 0x3d757280] profile High, level 3.2, 4:2:0, 8-bit\n",
      "[libx264 @ 0x3d757280] 264 - core 164 r3191 4613ac3 - H.264/MPEG-4 AVC codec - Copyleft 2003-2024 - http://www.videolan.org/x264.html - options: cabac=1 ref=3 deblock=1:0:0 analyse=0x3:0x113 me=hex subme=7 psy=1 psy_rd=1.00:0.00 mixed_ref=1 me_range=16 chroma_me=1 trellis=1 8x8dct=1 cqm=0 deadzone=21,11 fast_pskip=1 chroma_qp_offset=-2 threads=6 lookahead_threads=1 sliced_threads=0 nr=0 decimate=1 interlaced=0 bluray_compat=0 constrained_intra=0 bframes=3 b_pyramid=2 b_adapt=1 b_bias=0 direct=1 weightb=1 open_gop=0 weightp=2 keyint=250 keyint_min=1 scenecut=40 intra_refresh=0 rc_lookahead=40 rc=crf mbtree=1 crf=23.0 qcomp=0.60 qpmin=0 qpmax=69 qpstep=4 ip_ratio=1.40 aq=1:1.00\n",
      "Output #0, mp4, to 'video.mp4':\n",
      "  Metadata:\n",
      "    software        : Lavf59.27.100\n",
      "    encoder         : Lavf61.1.100\n",
      "  Stream #0:0: Video: h264 (avc1 / 0x31637661), yuv420p(progressive), 768x1408, q=2-31, 1 fps, 16384 tbn\n",
      "      Metadata:\n",
      "        encoder         : Lavc61.3.100 libx264\n",
      "      Side data:\n",
      "        cpb: bitrate max/min/avg: 0/0/0 buffer size: 0 vbv_delay: N/A\n",
      "[out#0/mp4 @ 0x3d7560c0] video:119KiB audio:0KiB subtitle:0KiB other streams:0KiB global headers:0KiB muxing overhead: 0.674662%\n",
      "frame=    1 fps=0.0 q=17.0 Lsize=     120KiB time=00:00:01.00 bitrate= 982.5kbits/s speed=11.2x    \n",
      "[libx264 @ 0x3d757280] frame I:1     Avg QP:12.34  size:121299\n",
      "[libx264 @ 0x3d757280] mb I  I16..4: 44.8% 12.1% 43.1%\n",
      "[libx264 @ 0x3d757280] 8x8 transform intra:12.1%\n",
      "[libx264 @ 0x3d757280] coded y,uvDC,uvAC intra: 47.4% 31.2% 13.5%\n",
      "[libx264 @ 0x3d757280] i16 v,h,dc,p: 89%  7%  4%  0%\n",
      "[libx264 @ 0x3d757280] i8 v,h,dc,ddl,ddr,vr,hd,vl,hu: 29% 10% 19%  3% 10%  9%  7%  6%  6%\n",
      "[libx264 @ 0x3d757280] i4 v,h,dc,ddl,ddr,vr,hd,vl,hu: 24% 14% 16%  5%  9% 10% 10%  6%  5%\n",
      "[libx264 @ 0x3d757280] i8c dc,h,v,p: 78% 11% 11%  0%\n",
      "[libx264 @ 0x3d757280] kb/s:970.39\n",
      "ffmpeg version 7.0.2-static https://johnvansickle.com/ffmpeg/  Copyright (c) 2000-2024 the FFmpeg developers\n",
      "  built with gcc 8 (Debian 8.3.0-6)\n",
      "  configuration: --enable-gpl --enable-version3 --enable-static --disable-debug --disable-ffplay --disable-indev=sndio --disable-outdev=sndio --cc=gcc --enable-fontconfig --enable-frei0r --enable-gnutls --enable-gmp --enable-libgme --enable-gray --enable-libaom --enable-libfribidi --enable-libass --enable-libvmaf --enable-libfreetype --enable-libmp3lame --enable-libopencore-amrnb --enable-libopencore-amrwb --enable-libopenjpeg --enable-librubberband --enable-libsoxr --enable-libspeex --enable-libsrt --enable-libvorbis --enable-libopus --enable-libtheora --enable-libvidstab --enable-libvo-amrwbenc --enable-libvpx --enable-libwebp --enable-libx264 --enable-libx265 --enable-libxml2 --enable-libdav1d --enable-libxvid --enable-libzvbi --enable-libzimg\n",
      "  libavutil      59.  8.100 / 59.  8.100\n",
      "  libavcodec     61.  3.100 / 61.  3.100\n",
      "  libavformat    61.  1.100 / 61.  1.100\n",
      "  libavdevice    61.  1.100 / 61.  1.100\n",
      "  libavfilter    10.  1.100 / 10.  1.100\n",
      "  libswscale      8.  1.100 /  8.  1.100\n",
      "  libswresample   5.  1.100 /  5.  1.100\n",
      "  libpostproc    58.  1.100 / 58.  1.100\n",
      "Input #0, mov,mp4,m4a,3gp,3g2,mj2, from 'video.mp4':\n",
      "  Metadata:\n",
      "    major_brand     : isom\n",
      "    minor_version   : 512\n",
      "    compatible_brands: isomiso2avc1mp41\n",
      "    encoder         : Lavf61.1.100\n",
      "  Duration: 00:00:01.00, start: 0.000000, bitrate: 982 kb/s\n",
      "  Stream #0:0[0x1](und): Video: h264 (High) (avc1 / 0x31637661), yuv420p(progressive), 768x1408, 975 kb/s, 1 fps, 1 tbr, 16384 tbn (default)\n",
      "      Metadata:\n",
      "        handler_name    : VideoHandler\n",
      "        vendor_id       : [0][0][0][0]\n",
      "        encoder         : Lavc61.3.100 libx264\n",
      "[mp3 @ 0x2a3e4700] Estimating duration from bitrate, this may be inaccurate\n",
      "Input #1, mp3, from './data/audio/output.mp3':\n",
      "  Duration: 00:00:06.82, start: 0.000000, bitrate: 64 kb/s\n",
      "  Stream #1:0: Audio: mp3 (mp3float), 24000 Hz, mono, fltp, 64 kb/s\n",
      "Stream mapping:\n",
      "  Stream #0:0 -> #0:0 (copy)\n",
      "  Stream #1:0 -> #0:1 (mp3 (mp3float) -> aac (native))\n",
      "Press [q] to stop, [?] for help\n",
      "Output #0, mp4, to '2.mp4':\n",
      "  Metadata:\n",
      "    major_brand     : isom\n",
      "    minor_version   : 512\n",
      "    compatible_brands: isomiso2avc1mp41\n",
      "    encoder         : Lavf61.1.100\n",
      "  Stream #0:0(und): Video: h264 (High) (avc1 / 0x31637661), yuv420p(progressive), 768x1408, q=2-31, 975 kb/s, 1 fps, 1 tbr, 16384 tbn (default)\n",
      "      Metadata:\n",
      "        handler_name    : VideoHandler\n",
      "        vendor_id       : [0][0][0][0]\n",
      "        encoder         : Lavc61.3.100 libx264\n",
      "  Stream #0:1: Audio: aac (LC) (mp4a / 0x6134706D), 24000 Hz, mono, fltp, 69 kb/s\n",
      "      Metadata:\n",
      "        encoder         : Lavc61.3.100 aac\n",
      "[out#0/mp4 @ 0x2a437640] video:119KiB audio:10KiB subtitle:0KiB other streams:0KiB global headers:0KiB muxing overhead: 1.126916%\n",
      "size=     131KiB time=00:00:01.00 bitrate=1073.3kbits/s speed=8.78x    \n",
      "[aac @ 0x2a407c80] Qavg: 4053.101\n"
     ]
    },
    {
     "name": "stdout",
     "output_type": "stream",
     "text": [
      "{'visual': 'Jemand schliesst mehrere Geräte über eine Mehrfachsteckdose an den Powerline Webcast 3 an', 'audio': 'Wenn Sie weitere Netzwerkgeräte mittels Mehrfachsteckdose anschliessen, stecken Sie diese Mehrfachsteckdose in die Steckdose des PowerLine Webcast 3. Leuchtet die Power LED dauerhaft, ist der Reset abgeschlossen. '}\n",
      "A rough, cartoonish sketch in black and white depicts a power strip connected to a \"Powerline Webcast 3\" device, with multiple electronic devices plugged into the power strip.\n",
      "Prompt: A rough, cartoonish sketch in black and white depicts a power strip connected to a \"Powerline Webcast 3\" device, with multiple electronic devices plugged into the power strip.\n",
      "\n",
      "Audio content written to file \"./data/audio/output.mp3\"\n"
     ]
    },
    {
     "name": "stderr",
     "output_type": "stream",
     "text": [
      "ffmpeg version 7.0.2-static https://johnvansickle.com/ffmpeg/  Copyright (c) 2000-2024 the FFmpeg developers\n",
      "  built with gcc 8 (Debian 8.3.0-6)\n",
      "  configuration: --enable-gpl --enable-version3 --enable-static --disable-debug --disable-ffplay --disable-indev=sndio --disable-outdev=sndio --cc=gcc --enable-fontconfig --enable-frei0r --enable-gnutls --enable-gmp --enable-libgme --enable-gray --enable-libaom --enable-libfribidi --enable-libass --enable-libvmaf --enable-libfreetype --enable-libmp3lame --enable-libopencore-amrnb --enable-libopencore-amrwb --enable-libopenjpeg --enable-librubberband --enable-libsoxr --enable-libspeex --enable-libsrt --enable-libvorbis --enable-libopus --enable-libtheora --enable-libvidstab --enable-libvo-amrwbenc --enable-libvpx --enable-libwebp --enable-libx264 --enable-libx265 --enable-libxml2 --enable-libdav1d --enable-libxvid --enable-libzvbi --enable-libzimg\n",
      "  libavutil      59.  8.100 / 59.  8.100\n",
      "  libavcodec     61.  3.100 / 61.  3.100\n",
      "  libavformat    61.  1.100 / 61.  1.100\n",
      "  libavdevice    61.  1.100 / 61.  1.100\n",
      "  libavfilter    10.  1.100 / 10.  1.100\n",
      "  libswscale      8.  1.100 /  8.  1.100\n",
      "  libswresample   5.  1.100 /  5.  1.100\n",
      "  libpostproc    58.  1.100 / 58.  1.100\n",
      "Input #0, avi, from 'video.avi':\n",
      "  Metadata:\n",
      "    software        : Lavf59.27.100\n",
      "  Duration: 00:00:01.00, start: 0.000000, bitrate: 13021 kb/s\n",
      "  Stream #0:0: Video: rawvideo (I420 / 0x30323449), yuv420p, 768x1408, 1 fps, 1 tbr, 1 tbn\n",
      "Stream mapping:\n",
      "  Stream #0:0 -> #0:0 (rawvideo (native) -> h264 (libx264))\n",
      "Press [q] to stop, [?] for help\n",
      "[libx264 @ 0x249fd280] using cpu capabilities: MMX2 SSE2Fast SSSE3 SSE4.2 AVX FMA3 BMI2 AVX2\n",
      "[libx264 @ 0x249fd280] profile High, level 3.2, 4:2:0, 8-bit\n",
      "[libx264 @ 0x249fd280] 264 - core 164 r3191 4613ac3 - H.264/MPEG-4 AVC codec - Copyleft 2003-2024 - http://www.videolan.org/x264.html - options: cabac=1 ref=3 deblock=1:0:0 analyse=0x3:0x113 me=hex subme=7 psy=1 psy_rd=1.00:0.00 mixed_ref=1 me_range=16 chroma_me=1 trellis=1 8x8dct=1 cqm=0 deadzone=21,11 fast_pskip=1 chroma_qp_offset=-2 threads=6 lookahead_threads=1 sliced_threads=0 nr=0 decimate=1 interlaced=0 bluray_compat=0 constrained_intra=0 bframes=3 b_pyramid=2 b_adapt=1 b_bias=0 direct=1 weightb=1 open_gop=0 weightp=2 keyint=250 keyint_min=1 scenecut=40 intra_refresh=0 rc_lookahead=40 rc=crf mbtree=1 crf=23.0 qcomp=0.60 qpmin=0 qpmax=69 qpstep=4 ip_ratio=1.40 aq=1:1.00\n",
      "Output #0, mp4, to 'video.mp4':\n",
      "  Metadata:\n",
      "    software        : Lavf59.27.100\n",
      "    encoder         : Lavf61.1.100\n",
      "  Stream #0:0: Video: h264 (avc1 / 0x31637661), yuv420p(progressive), 768x1408, q=2-31, 1 fps, 16384 tbn\n",
      "      Metadata:\n",
      "        encoder         : Lavc61.3.100 libx264\n",
      "      Side data:\n",
      "        cpb: bitrate max/min/avg: 0/0/0 buffer size: 0 vbv_delay: N/A\n",
      "[out#0/mp4 @ 0x249fc0c0] video:100KiB audio:0KiB subtitle:0KiB other streams:0KiB global headers:0KiB muxing overhead: 0.802614%\n",
      "frame=    1 fps=0.0 q=17.0 Lsize=     101KiB time=00:00:01.00 bitrate= 826.9kbits/s speed=14.8x    \n",
      "[libx264 @ 0x249fd280] frame I:1     Avg QP: 9.96  size:101852\n",
      "[libx264 @ 0x249fd280] mb I  I16..4: 58.6%  8.9% 32.5%\n",
      "[libx264 @ 0x249fd280] 8x8 transform intra:8.9%\n",
      "[libx264 @ 0x249fd280] coded y,uvDC,uvAC intra: 27.1% 12.0% 6.1%\n",
      "[libx264 @ 0x249fd280] i16 v,h,dc,p: 95%  2%  3%  0%\n",
      "[libx264 @ 0x249fd280] i8 v,h,dc,ddl,ddr,vr,hd,vl,hu: 39% 13% 40%  2%  0%  1%  0%  2%  1%\n",
      "[libx264 @ 0x249fd280] i4 v,h,dc,ddl,ddr,vr,hd,vl,hu: 21% 12% 21% 14%  5%  6% 10%  5%  5%\n",
      "[libx264 @ 0x249fd280] i8c dc,h,v,p: 88%  6%  6%  0%\n",
      "[libx264 @ 0x249fd280] kb/s:814.82\n",
      "ffmpeg version 7.0.2-static https://johnvansickle.com/ffmpeg/  Copyright (c) 2000-2024 the FFmpeg developers\n",
      "  built with gcc 8 (Debian 8.3.0-6)\n",
      "  configuration: --enable-gpl --enable-version3 --enable-static --disable-debug --disable-ffplay --disable-indev=sndio --disable-outdev=sndio --cc=gcc --enable-fontconfig --enable-frei0r --enable-gnutls --enable-gmp --enable-libgme --enable-gray --enable-libaom --enable-libfribidi --enable-libass --enable-libvmaf --enable-libfreetype --enable-libmp3lame --enable-libopencore-amrnb --enable-libopencore-amrwb --enable-libopenjpeg --enable-librubberband --enable-libsoxr --enable-libspeex --enable-libsrt --enable-libvorbis --enable-libopus --enable-libtheora --enable-libvidstab --enable-libvo-amrwbenc --enable-libvpx --enable-libwebp --enable-libx264 --enable-libx265 --enable-libxml2 --enable-libdav1d --enable-libxvid --enable-libzvbi --enable-libzimg\n",
      "  libavutil      59.  8.100 / 59.  8.100\n",
      "  libavcodec     61.  3.100 / 61.  3.100\n",
      "  libavformat    61.  1.100 / 61.  1.100\n",
      "  libavdevice    61.  1.100 / 61.  1.100\n",
      "  libavfilter    10.  1.100 / 10.  1.100\n",
      "  libswscale      8.  1.100 /  8.  1.100\n",
      "  libswresample   5.  1.100 /  5.  1.100\n",
      "  libpostproc    58.  1.100 / 58.  1.100\n",
      "Input #0, mov,mp4,m4a,3gp,3g2,mj2, from 'video.mp4':\n",
      "  Metadata:\n",
      "    major_brand     : isom\n",
      "    minor_version   : 512\n",
      "    compatible_brands: isomiso2avc1mp41\n",
      "    encoder         : Lavf61.1.100\n",
      "  Duration: 00:00:01.00, start: 0.000000, bitrate: 826 kb/s\n",
      "  Stream #0:0[0x1](und): Video: h264 (High) (avc1 / 0x31637661), yuv420p(progressive), 768x1408, 820 kb/s, 1 fps, 1 tbr, 16384 tbn (default)\n",
      "      Metadata:\n",
      "        handler_name    : VideoHandler\n",
      "        vendor_id       : [0][0][0][0]\n",
      "        encoder         : Lavc61.3.100 libx264\n",
      "[mp3 @ 0x3f326980] Estimating duration from bitrate, this may be inaccurate\n",
      "Input #1, mp3, from './data/audio/output.mp3':\n",
      "  Duration: 00:00:14.09, start: 0.000000, bitrate: 64 kb/s\n",
      "  Stream #1:0: Audio: mp3 (mp3float), 24000 Hz, mono, fltp, 64 kb/s\n",
      "Stream mapping:\n",
      "  Stream #0:0 -> #0:0 (copy)\n",
      "  Stream #1:0 -> #0:1 (mp3 (mp3float) -> aac (native))\n",
      "Press [q] to stop, [?] for help\n",
      "Output #0, mp4, to '3.mp4':\n",
      "  Metadata:\n",
      "    major_brand     : isom\n",
      "    minor_version   : 512\n",
      "    compatible_brands: isomiso2avc1mp41\n",
      "    encoder         : Lavf61.1.100\n",
      "  Stream #0:0(und): Video: h264 (High) (avc1 / 0x31637661), yuv420p(progressive), 768x1408, q=2-31, 820 kb/s, 1 fps, 1 tbr, 16384 tbn (default)\n",
      "      Metadata:\n",
      "        handler_name    : VideoHandler\n",
      "        vendor_id       : [0][0][0][0]\n",
      "        encoder         : Lavc61.3.100 libx264\n",
      "  Stream #0:1: Audio: aac (LC) (mp4a / 0x6134706D), 24000 Hz, mono, fltp, 69 kb/s\n",
      "      Metadata:\n",
      "        encoder         : Lavc61.3.100 aac\n",
      "[out#0/mp4 @ 0x3f327f80] video:100KiB audio:9KiB subtitle:0KiB other streams:0KiB global headers:0KiB muxing overhead: 1.331754%\n",
      "size=     111KiB time=00:00:01.00 bitrate= 910.0kbits/s speed=21.2x    \n",
      "[aac @ 0x3f38a000] Qavg: 2716.910\n"
     ]
    }
   ],
   "source": [
    "from manual_influencer.tts import synthesize_speech\n",
    "\n",
    "images = []\n",
    "idx = 0\n",
    "\n",
    "for scene in data['scenes']:\n",
    "    print(scene)\n",
    "    visual = generate(scene['visual'])\n",
    "    generate_image(visual, './data/visual/images_001.png')\n",
    "    generate_image(visual, './data/visual/images_002.png')\n",
    "    generate_image(visual, './data/visual/images_003.png')\n",
    "    generate_image(visual, './data/visual/images_004.png')\n",
    "    synthesize_speech(text=scene['audio'], output_file='./data/audio/output.mp3')\n",
    "    generate_video(image_folder='./data/visual', audio_file='./data/audio/output.mp3', output_file = str(idx) + '.mp4')\n",
    "    idx += 1"
   ]
  }
 ],
 "metadata": {
  "environment": {
   "kernel": "conda-base-py",
   "name": "workbench-notebooks.m129",
   "type": "gcloud",
   "uri": "us-docker.pkg.dev/deeplearning-platform-release/gcr.io/workbench-notebooks:m129"
  },
  "kernelspec": {
   "display_name": "Python 3 (ipykernel)",
   "language": "python",
   "name": "conda-base-py"
  },
  "language_info": {
   "codemirror_mode": {
    "name": "ipython",
    "version": 3
   },
   "file_extension": ".py",
   "mimetype": "text/x-python",
   "name": "python",
   "nbconvert_exporter": "python",
   "pygments_lexer": "ipython3",
   "version": "3.10.16"
  }
 },
 "nbformat": 4,
 "nbformat_minor": 4
}
